<svg width="180" height="180" viewBox="0 0 180 180" fill="none" xmlns="http://www.w3.org/2000/svg">
<path d="M180 137.664H0V137.754H180V137.664Z" fill="#EBEBEB"/>
<path d="M161.964 143.456H150.041V143.546H161.964V143.456Z" fill="#EBEBEB"/>
<path d="M119.239 144.436H116.11V144.526H119.239V144.436Z" fill="#EBEBEB"/>
<path d="M149.681 140.116H142.772V140.206H149.681V140.116Z" fill="#EBEBEB"/>
<path d="M34.4341 140.72H18.8857V140.81H34.4341V140.72Z" fill="#EBEBEB"/>
<path d="M39.9204 140.72H37.6416V140.81H39.9204V140.72Z" fill="#EBEBEB"/>
<path d="M81.0539 142.24H47.3291V142.33H81.0539V142.24Z" fill="#EBEBEB"/>
<path d="M85.3203 121.608H15.8079C15.2633 121.607 14.7414 121.39 14.3567 121.005C13.9719 120.619 13.7559 120.097 13.7559 119.552V21.8376C13.7606 21.2962 13.9788 20.7785 14.363 20.3969C14.7472 20.0154 15.2664 19.8009 15.8079 19.8H85.3203C85.8654 19.8 86.3883 20.0166 86.7738 20.4021C87.1593 20.7876 87.3759 21.3104 87.3759 21.8556V119.552C87.3759 120.098 87.1593 120.62 86.7738 121.006C86.3883 121.391 85.8654 121.608 85.3203 121.608V121.608ZM15.8079 19.872C15.2872 19.8729 14.7881 20.0805 14.4203 20.449C14.0525 20.8175 13.8459 21.3169 13.8459 21.8376V119.552C13.8459 120.073 14.0525 120.572 14.4203 120.941C14.7881 121.31 15.2872 121.517 15.8079 121.518H85.3203C85.8413 121.517 86.3407 121.31 86.7091 120.941C87.0775 120.573 87.2849 120.073 87.2859 119.552V21.8376C87.2849 21.3166 87.0775 20.8172 86.7091 20.4487C86.3407 20.0803 85.8413 19.8729 85.3203 19.872H15.8079Z" fill="#EBEBEB"/>
<path d="M163.192 121.608H93.6757C93.1308 121.607 92.6085 121.39 92.2232 121.005C91.838 120.62 91.6211 120.097 91.6201 119.552V21.8376C91.6258 21.2958 91.8448 20.7781 92.2296 20.3967C92.6143 20.0153 93.1339 19.8009 93.6757 19.8H163.192C163.733 19.8019 164.251 20.0168 164.634 20.3982C165.018 20.7796 165.235 21.2968 165.24 21.8376V119.552C165.24 120.096 165.025 120.618 164.641 121.003C164.257 121.389 163.736 121.606 163.192 121.608V121.608ZM93.6757 19.872C93.1547 19.8729 92.6553 20.0803 92.2869 20.4487C91.9185 20.8172 91.7111 21.3166 91.7101 21.8376V119.552C91.7111 120.073 91.9185 120.573 92.2869 120.941C92.6553 121.31 93.1547 121.517 93.6757 121.518H163.192C163.713 121.517 164.212 121.31 164.581 120.941C164.949 120.573 165.156 120.073 165.157 119.552V21.8376C165.156 21.3166 164.949 20.8172 164.581 20.4487C164.212 20.0803 163.713 19.8729 163.192 19.872H93.6757Z" fill="#EBEBEB"/>
<path d="M104.289 62.6616L153.89 62.6616V30.1788L104.289 30.1788V62.6616Z" fill="#E6E6E6"/>
<path d="M102.772 62.6616L153.18 62.6616V30.1788L102.772 30.1788V62.6616Z" fill="#F0F0F0"/>
<path d="M104.289 69.0336H153.89V62.658L104.289 62.658V69.0336Z" fill="#E6E6E6"/>
<path d="M100.257 69.0336H150.664V62.658L100.257 62.658V69.0336Z" fill="#F0F0F0"/>
<path d="M151.063 60.5448V32.2992H104.893V60.5448H151.063Z" fill="#FAFAFA"/>
<path d="M140.652 60.5412L134.755 32.2992H125.554L131.451 60.5412H140.652Z" fill="white"/>
<path d="M150.084 58.4352C150.104 58.4352 150.124 58.4312 150.143 58.4233C150.161 58.4155 150.178 58.404 150.192 58.3896C150.206 58.3752 150.217 58.3581 150.225 58.3393C150.232 58.3206 150.236 58.3005 150.235 58.2804V33.678C150.235 33.6379 150.219 33.5994 150.191 33.5711C150.162 33.5427 150.124 33.5268 150.084 33.5268C150.064 33.5263 150.044 33.5299 150.025 33.5373C150.007 33.5447 149.99 33.5558 149.976 33.57C149.962 33.5841 149.951 33.601 149.943 33.6195C149.936 33.6381 149.932 33.658 149.933 33.678V58.2804C149.932 58.3005 149.936 58.3206 149.943 58.3393C149.951 58.3581 149.962 58.3752 149.976 58.3896C149.99 58.404 150.007 58.4155 150.025 58.4233C150.044 58.4312 150.064 58.4352 150.084 58.4352V58.4352Z" fill="#F0F0F0"/>
<path d="M129.474 60.5412L123.577 32.2992H119.988L125.889 60.5412H129.474Z" fill="white"/>
<path d="M105.163 60.5448V32.2992H104.893V60.5448H105.163Z" fill="#E6E6E6"/>
<path opacity="0.6" d="M102.276 35.4924H151.877L152.072 33.12H102.471L102.276 35.4924Z" fill="#EBEBEB"/>
<path opacity="0.6" d="M102.276 39.3804H151.877L152.072 37.0116H102.471L102.276 39.3804Z" fill="#EBEBEB"/>
<path opacity="0.6" d="M102.276 43.2684H151.877L152.072 40.8996H102.471L102.276 43.2684Z" fill="#EBEBEB"/>
<path opacity="0.6" d="M102.276 47.16H151.877L152.072 44.7876H102.471L102.276 47.16Z" fill="#EBEBEB"/>
<path opacity="0.6" d="M102.276 51.048H151.877L152.072 48.6756H102.471L102.276 51.048Z" fill="#EBEBEB"/>
<path opacity="0.6" d="M102.276 54.936H151.877L152.072 52.5636H102.471L102.276 54.936Z" fill="#EBEBEB"/>
<path d="M146.769 114.041H136.368V116.093H146.769V114.041Z" fill="#E6E6E6"/>
<path d="M116.751 137.664H118.67V90.4788H116.751V137.664Z" fill="#E6E6E6"/>
<path d="M110.099 116.093H136.364V114.041H110.099V116.093Z" fill="#F5F5F5"/>
<path d="M146.769 125.262H136.368V127.314H146.769V125.262Z" fill="#E6E6E6"/>
<path d="M110.099 127.31H136.364V125.258H110.099V127.31Z" fill="#F5F5F5"/>
<path d="M146.769 91.602H136.368V93.654H146.769V91.602Z" fill="#E6E6E6"/>
<path d="M110.099 93.6504H136.364V91.5984H110.099V93.6504Z" fill="#F5F5F5"/>
<path d="M146.769 102.82H136.368V104.872H146.769V102.82Z" fill="#E6E6E6"/>
<path d="M110.099 104.872H136.364V102.82H110.099V104.872Z" fill="#F5F5F5"/>
<path d="M143.021 137.664H144.939V90.4788H143.021V137.664Z" fill="#E6E6E6"/>
<path d="M134.445 137.664H136.364V90.4788H134.445V137.664Z" fill="#F5F5F5"/>
<path d="M110.099 137.664H112.018V90.4788H110.099V137.664Z" fill="#F5F5F5"/>
<path d="M23.5368 137.664H43.1855L43.1855 99.5436H23.5368L23.5368 137.664Z" fill="#E6E6E6"/>
<path d="M28.782 137.664H23.5332V132.401H34.2828L28.782 137.664Z" fill="#FAFAFA"/>
<path d="M77.1051 137.664H96.7539V99.5436H77.1051V137.664Z" fill="#E6E6E6"/>
<path d="M23.5367 135.85H81.6875V99.54H23.5367L23.5367 135.85Z" fill="#FAFAFA"/>
<path d="M76.4393 137.664H81.6845V132.401H70.9385L76.4393 137.664Z" fill="#FAFAFA"/>
<path d="M27.605 122.159H77.6162V113.072H27.605V122.159Z" fill="#F0F0F0"/>
<path d="M27.605 133.186H77.6162V124.099H27.605V133.186Z" fill="#F0F0F0"/>
<path d="M68.1116 114.044H37.112C36.6747 114.044 36.2554 113.871 35.9462 113.561C35.637 113.252 35.4632 112.833 35.4632 112.396V112.284H69.7568V112.396C69.7568 112.832 69.5836 113.251 69.2752 113.56C68.9668 113.869 68.5483 114.043 68.1116 114.044Z" fill="#FAFAFA"/>
<path d="M27.605 111.128H77.6162V102.042H27.605V111.128Z" fill="#F0F0F0"/>
<path d="M68.1116 103.014H37.112C36.6747 103.014 36.2554 102.84 35.9462 102.531C35.637 102.222 35.4632 101.802 35.4632 101.365V101.254H69.7568V101.365C69.7568 101.802 69.5836 102.221 69.2752 102.53C68.9668 102.839 68.5483 103.013 68.1116 103.014Z" fill="#FAFAFA"/>
<path d="M68.1116 125.075H37.112C36.6747 125.075 36.2554 124.901 35.9462 124.592C35.637 124.283 35.4632 123.863 35.4632 123.426V123.314H69.7568V123.426C69.7568 123.863 69.5836 124.281 69.2752 124.591C68.9668 124.9 68.5483 125.074 68.1116 125.075Z" fill="#FAFAFA"/>
<path d="M26.6648 62.6616L76.2656 62.6616V30.1788L26.6648 30.1788L26.6648 62.6616Z" fill="#E6E6E6"/>
<path d="M25.1533 62.6616L75.5605 62.6616V30.1788L25.1533 30.1788L25.1533 62.6616Z" fill="#F0F0F0"/>
<path d="M26.6648 69.0336H76.2656V62.658L26.6648 62.658V69.0336Z" fill="#E6E6E6"/>
<path d="M22.6299 69.0336H73.0371V62.658L22.6299 62.658V69.0336Z" fill="#F0F0F0"/>
<path d="M73.4404 60.5448V32.2992H27.2704V60.5448H73.4404Z" fill="#FAFAFA"/>
<path d="M63.0291 60.5412L57.1323 32.2992H47.9307L53.8275 60.5412H63.0291Z" fill="white"/>
<path d="M72.4569 58.4352C72.4771 58.4352 72.497 58.4312 72.5156 58.4233C72.5342 58.4155 72.551 58.404 72.5651 58.3896C72.5792 58.3752 72.5903 58.3581 72.5976 58.3393C72.605 58.3206 72.6086 58.3005 72.6081 58.2804V33.678C72.6086 33.658 72.605 33.6381 72.5976 33.6195C72.5902 33.601 72.5791 33.5841 72.5649 33.57C72.5508 33.5558 72.5339 33.5447 72.5153 33.5373C72.4968 33.5299 72.4769 33.5263 72.4569 33.5268C72.4168 33.5268 72.3783 33.5427 72.35 33.5711C72.3216 33.5994 72.3057 33.6379 72.3057 33.678V58.2804C72.3052 58.3005 72.3088 58.3206 72.3162 58.3393C72.3235 58.3581 72.3346 58.3752 72.3487 58.3896C72.3628 58.404 72.3796 58.4155 72.3982 58.4233C72.4168 58.4312 72.4367 58.4352 72.4569 58.4352Z" fill="#F0F0F0"/>
<path d="M51.8512 60.5412L45.9544 32.2992H42.3652L48.262 60.5412H51.8512Z" fill="white"/>
<path d="M27.54 60.5448V32.2992H27.27V60.5448H27.54Z" fill="#E6E6E6"/>
<path opacity="0.6" d="M24.6494 35.4924H74.2502L74.4446 33.12H24.8438L24.6494 35.4924Z" fill="#EBEBEB"/>
<path opacity="0.6" d="M24.6494 36.8316H74.2502L74.4446 34.4592H24.8438L24.6494 36.8316Z" fill="#EBEBEB"/>
<path opacity="0.6" d="M24.6494 38.1672H74.2502L74.4446 35.7984H24.8438L24.6494 38.1672Z" fill="#EBEBEB"/>
<path opacity="0.6" d="M24.6494 39.5064H74.2502L74.4446 37.134H24.8438L24.6494 39.5064Z" fill="#EBEBEB"/>
<path opacity="0.6" d="M24.6494 40.842H74.2502L74.4446 38.4732H24.8438L24.6494 40.842Z" fill="#EBEBEB"/>
<path opacity="0.6" d="M24.6494 42.1812H74.2502L74.4446 39.8088H24.8438L24.6494 42.1812Z" fill="#EBEBEB"/>
<path d="M34.5677 98.3772H36.2812V79.2648H34.5677V98.3772Z" fill="#F5F5F5"/>
<path d="M34.7835 98.3664H35.2695V79.254H34.7835V98.3664Z" fill="#FAFAFA"/>
<path d="M35.4703 98.3664H35.6611V79.254H35.4703V98.3664Z" fill="#FAFAFA"/>
<path d="M41.7705 99.5436H29.0841C29.0841 99.1197 29.2525 98.7131 29.5523 98.4133C29.852 98.1136 30.2586 97.9452 30.6825 97.9452H40.1685C40.5924 97.9452 40.999 98.1136 41.2987 98.4133C41.5985 98.7131 41.7669 99.1197 41.7669 99.5436H41.7705Z" fill="#F0F0F0"/>
<path d="M32.3425 91.1304C32.473 91.1294 32.5979 91.0772 32.6902 90.9849C32.7825 90.8926 32.8348 90.7677 32.8357 90.6372V78.12C32.8357 77.9892 32.7837 77.8637 32.6912 77.7712C32.5988 77.6787 32.4733 77.6268 32.3425 77.6268V77.6268C32.2774 77.6263 32.2129 77.6387 32.1527 77.6633C32.0924 77.6879 32.0376 77.7241 31.9914 77.77C31.9452 77.8158 31.9086 77.8703 31.8836 77.9304C31.8586 77.9905 31.8457 78.0549 31.8457 78.12V90.6516C31.8504 90.7802 31.9048 90.902 31.9974 90.9913C32.0901 91.0806 32.2138 91.1305 32.3425 91.1304Z" fill="#F0F0F0"/>
<path d="M27.7451 83.808H43.0991L41.3315 73.08H29.5127L27.7451 83.808Z" fill="#E0E0E0"/>
<path d="M89.9996 153.922C128.549 153.922 159.8 152.097 159.8 149.846C159.8 147.596 128.549 145.771 89.9996 145.771C51.4499 145.771 20.1992 147.596 20.1992 149.846C20.1992 152.097 51.4499 153.922 89.9996 153.922Z" fill="#F5F5F5"/>
<path d="M37.4831 72.8493L37.124 72.8751L37.6023 79.5143L37.9613 79.4885L37.4831 72.8493Z" fill="#69D3CF"/>
<path d="M38.2057 82.9158L37.8467 82.9417L38.0267 85.4408L38.3858 85.415L38.2057 82.9158Z" fill="#69D3CF"/>
<path d="M121.576 113.458H44.4788C43.6206 113.442 42.7985 113.11 42.1709 112.524C41.5434 111.938 41.1549 111.141 41.0804 110.286L37.2932 57.6792C37.2579 57.2735 37.3081 56.8649 37.4404 56.4798C37.5727 56.0946 37.7841 55.7414 38.0612 55.443C38.3383 55.1445 38.6748 54.9074 39.0491 54.7469C39.4234 54.5865 39.8271 54.5062 40.2344 54.5112H117.332C118.19 54.5266 119.011 54.8586 119.639 55.4435C120.266 56.0284 120.655 56.8248 120.73 57.6792L124.518 110.286C124.553 110.692 124.503 111.101 124.37 111.486C124.238 111.871 124.027 112.225 123.75 112.523C123.473 112.822 123.136 113.06 122.762 113.22C122.388 113.381 121.984 113.462 121.576 113.458V113.458Z" fill="#69D3CF"/>
<path d="M121.871 113.458H44.7737C43.9155 113.442 43.0934 113.11 42.4659 112.524C41.8383 111.938 41.4499 111.141 41.3753 110.286L37.5881 57.6792C37.5529 57.2735 37.603 56.8649 37.7353 56.4798C37.8676 56.0946 38.0791 55.7414 38.3561 55.443C38.6332 55.1445 38.9697 54.9074 39.344 54.7469C39.7183 54.5865 40.1221 54.5062 40.5293 54.5112H117.627C118.485 54.5266 119.306 54.8586 119.934 55.4435C120.561 56.0284 120.95 56.8248 121.025 57.6792L124.812 110.286C124.848 110.692 124.798 111.101 124.666 111.487C124.534 111.872 124.323 112.226 124.046 112.525C123.769 112.823 123.432 113.061 123.057 113.222C122.683 113.382 122.279 113.463 121.871 113.458V113.458Z" fill="#69D3CF"/>
<path opacity="0.5" d="M121.871 113.458H44.7737C43.9155 113.442 43.0934 113.11 42.4659 112.524C41.8383 111.938 41.4499 111.141 41.3753 110.286L37.5881 57.6792C37.5529 57.2735 37.603 56.8649 37.7353 56.4798C37.8676 56.0946 38.0791 55.7414 38.3561 55.443C38.6332 55.1445 38.9697 54.9074 39.344 54.7469C39.7183 54.5865 40.1221 54.5062 40.5293 54.5112H117.627C118.485 54.5266 119.306 54.8586 119.934 55.4435C120.561 56.0284 120.95 56.8248 121.025 57.6792L124.812 110.286C124.848 110.692 124.798 111.101 124.666 111.487C124.534 111.872 124.323 112.226 124.046 112.525C123.769 112.823 123.432 113.061 123.057 113.222C122.683 113.382 122.279 113.463 121.871 113.458V113.458Z" fill="white"/>
<path d="M117.742 56.0952H40.6439H40.3847C38.4155 56.2572 38.8187 59.256 40.8059 59.256H118.033C120.024 59.256 119.995 56.2572 118.001 56.0952H117.742Z" fill="#69D3CF"/>
<path d="M42.6529 57.6792C42.6605 57.772 42.6485 57.8654 42.6177 57.9533C42.587 58.0412 42.5381 58.1217 42.4744 58.1895C42.4106 58.2574 42.3333 58.3111 42.2475 58.3472C42.1616 58.3833 42.0692 58.4011 41.9761 58.3992C41.7804 58.3965 41.5927 58.3214 41.4491 58.1885C41.3055 58.0555 41.2163 57.8741 41.1985 57.6792C41.191 57.5867 41.2028 57.4937 41.2334 57.406C41.2639 57.3184 41.3124 57.2381 41.3758 57.1703C41.4392 57.1025 41.516 57.0487 41.6014 57.0124C41.6868 56.976 41.7789 56.9579 41.8717 56.9592C42.068 56.9611 42.2566 57.0358 42.4009 57.1688C42.5453 57.3019 42.6351 57.4838 42.6529 57.6792Z" fill="#FAFAFA"/>
<path d="M45.1265 57.6792C45.1341 57.772 45.1221 57.8654 45.0914 57.9533C45.0606 58.0412 45.0118 58.1217 44.948 58.1895C44.8842 58.2574 44.8069 58.3111 44.7211 58.3472C44.6353 58.3833 44.5428 58.4011 44.4497 58.3992C44.2541 58.3965 44.0663 58.3214 43.9228 58.1885C43.7792 58.0555 43.6899 57.8741 43.6721 57.6792C43.6646 57.5867 43.6765 57.4937 43.707 57.406C43.7375 57.3184 43.7861 57.2381 43.8494 57.1703C43.9128 57.1025 43.9897 57.0487 44.0751 57.0124C44.1605 56.976 44.2525 56.9579 44.3453 56.9592C44.5416 56.9611 44.7302 57.0358 44.8745 57.1688C45.0189 57.3019 45.1087 57.4838 45.1265 57.6792Z" fill="#FAFAFA"/>
<path d="M47.5959 57.6792C47.6034 57.7717 47.5916 57.8648 47.561 57.9524C47.5305 58.0401 47.482 58.1204 47.4186 58.1882C47.3552 58.256 47.2783 58.3098 47.1929 58.3461C47.1075 58.3824 47.0155 58.4006 46.9227 58.3992C46.7268 58.3973 46.5386 58.3225 46.3949 58.1894C46.2511 58.0563 46.1621 57.8744 46.1451 57.6792C46.137 57.5866 46.1485 57.4933 46.1788 57.4054C46.2091 57.3175 46.2576 57.237 46.3211 57.1691C46.3846 57.1012 46.4617 57.0474 46.5474 57.0112C46.633 56.9751 46.7253 56.9574 46.8183 56.9592C47.014 56.962 47.2017 57.0371 47.3453 57.17C47.4889 57.303 47.5781 57.4844 47.5959 57.6792V57.6792Z" fill="#FAFAFA"/>
<path d="M119.826 108.209H46.0802C45.7687 108.204 45.4702 108.083 45.2427 107.87C45.0152 107.657 44.8749 107.367 44.849 107.057L41.735 63.7956C41.7212 63.6471 41.739 63.4974 41.7875 63.3564C41.8359 63.2154 41.9138 63.0863 42.0159 62.9777C42.118 62.8691 42.2421 62.7835 42.3799 62.7265C42.5177 62.6695 42.666 62.6425 42.815 62.6472H116.579C116.89 62.6515 117.189 62.7715 117.416 62.9837C117.644 63.196 117.784 63.4854 117.81 63.7956L120.928 107.057C120.941 107.207 120.922 107.359 120.873 107.501C120.823 107.644 120.743 107.774 120.639 107.883C120.534 107.992 120.408 108.078 120.268 108.134C120.128 108.19 119.977 108.216 119.826 108.209V108.209Z" fill="white"/>
<path d="M88.7514 91.728L87.549 75.0528L83.913 72.864H73.9014L75.2622 91.728H88.7514Z" fill="white"/>
<path d="M88.7508 91.9008H75.2616C75.2169 91.9018 75.1737 91.8855 75.1408 91.8553C75.1079 91.8251 75.088 91.7834 75.0852 91.7388L73.728 72.8748C73.7263 72.8511 73.7295 72.8274 73.7376 72.805C73.7457 72.7827 73.7583 72.7623 73.7748 72.7452C73.7907 72.7274 73.8101 72.7132 73.8318 72.7032C73.8534 72.6933 73.8769 72.688 73.9008 72.6876H83.9124C83.944 72.6887 83.9748 72.6974 84.0024 72.7128L87.6384 74.9016C87.6629 74.9156 87.6835 74.9354 87.6986 74.9593C87.7136 74.9831 87.7226 75.0103 87.7248 75.0384L88.92 91.7136C88.9225 91.7379 88.9196 91.7624 88.9115 91.7855C88.9034 91.8085 88.8903 91.8294 88.8732 91.8468C88.8575 91.8637 88.8386 91.8772 88.8176 91.8864C88.7965 91.8957 88.7738 91.9006 88.7508 91.9008V91.9008ZM75.4308 91.5408H88.56L87.3792 75.1428L83.88 73.0368H74.088L75.4308 91.5408Z" fill="#69D3CF"/>
<path d="M87.5491 75.0528L83.9131 72.864L85.2487 75.7656L87.5491 75.0528Z" fill="#EBEBEB"/>
<path d="M85.2486 75.9384C85.2154 75.9382 85.1829 75.9287 85.1549 75.9108C85.1268 75.893 85.1044 75.8676 85.0902 75.8376L83.7546 72.936C83.739 72.9019 83.7344 72.8639 83.7415 72.8271C83.7486 72.7903 83.767 72.7566 83.7942 72.7308C83.8227 72.7064 83.8582 72.6915 83.8957 72.6883C83.9331 72.6851 83.9706 72.6936 84.003 72.7128L87.639 74.9016C87.6683 74.9192 87.692 74.9448 87.7073 74.9754C87.7226 75.006 87.7289 75.0404 87.7254 75.0744C87.7207 75.1075 87.7068 75.1387 87.6851 75.1642C87.6634 75.1897 87.6349 75.2085 87.603 75.2184L85.299 75.9384H85.2486ZM84.309 73.3032L85.3422 75.5532L87.1422 75.0024L84.309 73.3032Z" fill="#69D3CF"/>
<path d="M79.5601 81.36C79.5655 81.4578 79.5508 81.5557 79.5171 81.6477C79.4833 81.7397 79.4311 81.8238 79.3637 81.8949C79.2963 81.966 79.2151 82.0226 79.1251 82.0613C79.035 82.0999 78.9381 82.1198 78.8401 82.1196C78.6346 82.1159 78.4377 82.0363 78.2875 81.896C78.1372 81.7557 78.0443 81.5648 78.0265 81.36C78.0172 81.2611 78.0291 81.1614 78.0614 81.0676C78.0937 80.9737 78.1457 80.8877 78.2138 80.8155C78.282 80.7433 78.3647 80.6864 78.4566 80.6487C78.5484 80.611 78.6473 80.5933 78.7465 80.5968C78.9523 80.6014 79.1492 80.6818 79.2994 80.8227C79.4496 80.9635 79.5424 81.1549 79.5601 81.36Z" fill="#69D3CF"/>
<path d="M84.4926 81.36C84.5013 81.4586 84.489 81.5579 84.4565 81.6513C84.4239 81.7448 84.3719 81.8303 84.3038 81.9021C84.2357 81.9739 84.1532 82.0304 84.0616 82.0679C83.97 82.1054 83.8715 82.123 83.7726 82.1196C83.5667 82.116 83.3694 82.0365 83.2186 81.8963C83.0677 81.7561 82.974 81.5651 82.9554 81.36C82.9495 81.2619 82.9638 81.1636 82.9973 81.0712C83.0308 80.9788 83.0829 80.8942 83.1504 80.8227C83.2178 80.7512 83.2992 80.6943 83.3895 80.6554C83.4798 80.6166 83.5771 80.5966 83.6754 80.5968C83.8821 80.5997 84.0803 80.6794 84.2314 80.8206C84.3825 80.9617 84.4756 81.154 84.4926 81.36V81.36Z" fill="#69D3CF"/>
<path d="M85.8894 86.3064C85.8457 86.3057 85.8037 86.2887 85.7718 86.2588C85.7399 86.2288 85.7202 86.1881 85.7166 86.1444C85.6266 84.9168 83.7042 83.9196 81.4326 83.9196C79.9242 83.9196 78.5706 84.3696 77.901 85.0896C77.7635 85.2223 77.6557 85.3827 77.585 85.5602C77.5142 85.7378 77.4821 85.9283 77.4906 86.1192C77.4923 86.1429 77.4893 86.1666 77.4817 86.1891C77.4742 86.2115 77.4624 86.2323 77.4468 86.2502C77.4154 86.2863 77.371 86.3085 77.3232 86.3118C77.2755 86.3152 77.2284 86.2994 77.1923 86.268C77.1561 86.2366 77.134 86.1922 77.1306 86.1444C77.1199 85.9058 77.1592 85.6675 77.246 85.445C77.3328 85.2224 77.4652 85.0204 77.6346 84.852C78.3546 84.0636 79.8198 83.5704 81.4218 83.5704C83.9166 83.5704 85.9506 84.69 86.0514 86.1192C86.0529 86.1419 86.0499 86.1647 86.0425 86.1862C86.0351 86.2078 86.0236 86.2276 86.0086 86.2447C85.9935 86.2617 85.9752 86.2757 85.9548 86.2856C85.9344 86.2956 85.9121 86.3015 85.8894 86.3028V86.3064Z" fill="#69D3CF"/>
<path d="M76.7412 79.8192C76.6973 79.8183 76.6552 79.8017 76.6224 79.7724C76.5897 79.7393 76.5713 79.6947 76.5713 79.6482C76.5713 79.6017 76.5897 79.557 76.6224 79.524L77.3892 78.6996C77.4221 78.6679 77.466 78.6502 77.5116 78.6502C77.5573 78.6502 77.6012 78.6679 77.634 78.6996C77.6501 78.7156 77.6629 78.7347 77.6716 78.7557C77.6804 78.7767 77.6849 78.7992 77.6849 78.822C77.6849 78.8447 77.6804 78.8672 77.6716 78.8883C77.6629 78.9093 77.6501 78.9283 77.634 78.9444L76.8672 79.7688C76.8507 79.7853 76.831 79.7982 76.8094 79.8069C76.7877 79.8155 76.7645 79.8197 76.7412 79.8192V79.8192Z" fill="#69D3CF"/>
<path d="M85.529 79.8192C85.4854 79.8171 85.4436 79.8007 85.4102 79.7724L84.5282 78.948C84.5116 78.9319 84.4983 78.9126 84.4893 78.8912C84.4802 78.8699 84.4756 78.847 84.4756 78.8238C84.4756 78.8006 84.4802 78.7777 84.4893 78.7563C84.4983 78.735 84.5116 78.7157 84.5282 78.6996C84.5611 78.6679 84.605 78.6502 84.6506 78.6502C84.6963 78.6502 84.7402 78.6679 84.773 78.6996L85.655 79.524C85.6711 79.54 85.6839 79.5591 85.6927 79.5801C85.7014 79.6011 85.7059 79.6236 85.7059 79.6464C85.7059 79.6691 85.7014 79.6916 85.6927 79.7127C85.6839 79.7337 85.6711 79.7527 85.655 79.7688C85.6208 79.8008 85.5759 79.8187 85.529 79.8192V79.8192Z" fill="#69D3CF"/>
<path d="M72.8145 95.454H73.6281L74.8017 97.0164L74.6901 95.454H75.5109L75.7125 98.2764H74.8809L73.7145 96.7248L73.8261 98.2764H73.0053L72.8145 95.454Z" fill="#69D3CF"/>
<path d="M76.0796 96.8652C76.0518 96.6735 76.065 96.4781 76.1184 96.2919C76.1718 96.1058 76.2641 95.933 76.3892 95.7852C76.526 95.6507 76.6898 95.5468 76.8698 95.4803C77.0498 95.4139 77.2418 95.3866 77.4332 95.4C77.8388 95.378 78.2373 95.5134 78.5456 95.778C78.828 96.0592 78.9916 96.438 79.0028 96.8364C79.0325 97.1111 78.9954 97.389 78.8948 97.6464C78.8016 97.8537 78.6454 98.0263 78.4484 98.1396C78.212 98.2663 77.9459 98.3272 77.678 98.316C77.4026 98.3247 77.1286 98.2731 76.8752 98.1648C76.6532 98.0582 76.466 97.891 76.3352 97.6824C76.1807 97.4367 76.0927 97.1551 76.0796 96.8652V96.8652ZM76.9544 96.8652C76.9509 97.0861 77.0219 97.3016 77.156 97.4772C77.2122 97.5391 77.2813 97.588 77.3584 97.6203C77.4355 97.6527 77.5188 97.6677 77.6024 97.6644C77.6822 97.67 77.7622 97.6562 77.8355 97.6242C77.9088 97.5922 77.9733 97.543 78.0236 97.4808C78.127 97.2842 78.1612 97.0585 78.1208 96.84C78.1223 96.6283 78.0511 96.4224 77.9192 96.2568C77.8615 96.196 77.7915 96.1482 77.714 96.1165C77.6364 96.0849 77.5529 96.0701 77.4692 96.0732C77.3909 96.0698 77.3128 96.085 77.2415 96.1175C77.1702 96.1501 77.1076 96.199 77.0588 96.2604C76.9534 96.4459 76.9164 96.6625 76.9544 96.8724V96.8652Z" fill="#69D3CF"/>
<path d="M80.6943 95.454H81.9903C82.204 95.4472 82.4168 95.4827 82.6167 95.5584C82.7749 95.6247 82.9155 95.727 83.0271 95.8572C83.1405 95.9894 83.2273 96.1422 83.2827 96.3072C83.3411 96.4845 83.3774 96.6683 83.3907 96.8544C83.4184 97.0897 83.4 97.3281 83.3367 97.5564C83.2872 97.7145 83.1994 97.8579 83.0811 97.974C82.9825 98.0784 82.8585 98.1553 82.7211 98.1972C82.5537 98.2457 82.3806 98.2724 82.2063 98.2764H80.9139L80.6943 95.454ZM81.6123 96.0948L81.7239 97.6356H81.9363C82.0677 97.6442 82.1993 97.6233 82.3215 97.5744C82.4021 97.5277 82.4615 97.4516 82.4871 97.362C82.5283 97.2022 82.5381 97.0359 82.5159 96.8724C82.5228 96.6528 82.4556 96.4372 82.3251 96.2604C82.2583 96.1999 82.1796 96.154 82.0941 96.1255C82.0086 96.097 81.9181 96.0865 81.8283 96.0948H81.6123Z" fill="#69D3CF"/>
<path d="M85.4826 97.8084H84.4926L84.3882 98.2764H83.499L84.3558 95.454H85.3206L86.5842 98.2764H85.6698L85.4826 97.8084ZM85.2558 97.2L84.8742 96.1848L84.6366 97.2H85.2558Z" fill="#69D3CF"/>
<path d="M86.1738 95.454H88.8234L88.8738 96.1524H87.9846L88.1358 98.2764H87.2646L87.1134 96.1524H86.2242L86.1738 95.454Z" fill="#69D3CF"/>
<path d="M90.8537 97.8084H89.8637L89.7593 98.2764H88.8701L89.7269 95.454H90.6773L91.9373 98.2764H91.0265L90.8537 97.8084ZM90.6269 97.2L90.2417 96.1848L90.0005 97.2H90.6269Z" fill="#69D3CF"/>
<path d="M127.328 62.3088C127.649 62.1468 128.048 61.9488 128.387 61.7436C128.725 61.5384 129.107 61.3404 129.467 61.1244C130.169 60.6888 130.881 60.2604 131.555 59.7852C132.907 58.86 134.174 57.8168 135.342 56.6676C135.489 56.5308 135.619 56.3796 135.759 56.232L135.965 56.0124L136.065 55.9044L136.116 55.8468C136.065 55.944 136.116 55.9152 136.116 55.8216C136.147 55.693 136.165 55.5615 136.17 55.4292C136.161 54.6637 136.073 53.9012 135.907 53.154C135.587 51.5412 135.101 49.878 134.622 48.2508L136.019 47.6388C136.9 49.2 137.636 50.8389 138.218 52.5348C138.545 53.4513 138.753 54.4059 138.837 55.3752C138.859 55.6766 138.85 55.9794 138.809 56.2788C138.755 56.7021 138.605 57.1074 138.369 57.4632L138.308 57.546L138.261 57.6036L138.207 57.672L138.096 57.8088L137.873 58.0788C137.725 58.2552 137.581 58.4388 137.423 58.608C136.191 59.9742 134.818 61.2051 133.326 62.28C132.606 62.8128 131.843 63.324 131.061 63.7884C130.676 64.0224 130.284 64.2456 129.884 64.4652C129.485 64.6848 129.096 64.8864 128.635 65.1024L127.328 62.3088Z" fill="#FFB573"/>
<path d="M124.124 146.945C124.394 146.938 124.662 146.902 124.924 146.837C124.937 146.833 124.949 146.825 124.958 146.815C124.968 146.805 124.974 146.793 124.978 146.779C124.979 146.765 124.977 146.751 124.972 146.739C124.966 146.726 124.957 146.715 124.945 146.707C124.841 146.639 123.926 146.048 123.574 146.207C123.535 146.225 123.501 146.253 123.476 146.289C123.452 146.324 123.437 146.365 123.433 146.408C123.419 146.476 123.423 146.547 123.444 146.613C123.464 146.679 123.502 146.739 123.552 146.786C123.717 146.907 123.921 146.963 124.124 146.945V146.945ZM124.718 146.736C124.196 146.84 123.8 146.822 123.638 146.682C123.606 146.649 123.582 146.608 123.57 146.563C123.557 146.519 123.556 146.472 123.566 146.426C123.568 146.407 123.574 146.389 123.585 146.373C123.596 146.357 123.61 146.345 123.628 146.336C123.818 146.254 124.348 146.52 124.718 146.736Z" fill="#69D3CF"/>
<path d="M124.92 146.837H124.956C124.967 146.83 124.975 146.821 124.982 146.811C124.988 146.8 124.991 146.788 124.992 146.776C124.992 146.736 124.992 145.868 124.661 145.58C124.621 145.542 124.573 145.513 124.521 145.497C124.468 145.48 124.413 145.475 124.358 145.483C124.302 145.484 124.247 145.504 124.203 145.54C124.159 145.576 124.129 145.626 124.117 145.681C124.049 146.041 124.596 146.671 124.884 146.837C124.896 146.84 124.908 146.84 124.92 146.837V146.837ZM124.405 145.616C124.464 145.617 124.52 145.638 124.564 145.678C124.754 145.958 124.852 146.29 124.844 146.628C124.556 146.398 124.214 145.908 124.258 145.703C124.258 145.67 124.283 145.627 124.373 145.616H124.405Z" fill="#69D3CF"/>
<path d="M124.639 53.3052C124.279 55.1052 123.559 58.7052 124.801 59.9112C124.801 59.9112 124.311 61.7112 120.988 61.7112C117.331 61.7112 119.242 59.9112 119.242 59.9112C121.237 59.436 121.183 57.9564 120.837 56.5632L124.639 53.3052Z" fill="#FFB573"/>
<path d="M118.54 60.6312C117.968 60.7104 118.457 59.2236 118.688 59.0688C119.228 58.7088 126.197 58.2084 126.15 59.0688C126.122 59.4288 125.949 60.1488 125.646 60.3864C125.344 60.624 123.551 59.8824 118.54 60.6312Z" fill="#263238"/>
<path d="M119.678 60.12C119.221 60.2748 119.264 58.7772 119.419 58.5972C119.779 58.1796 125.42 56.7324 125.586 57.5496C125.65 57.9096 125.683 58.6296 125.488 58.8852C125.294 59.1408 123.638 58.7196 119.678 60.12Z" fill="#263238"/>
<path d="M117.579 50.0796C117.557 50.0806 117.534 50.0762 117.513 50.0668C117.493 50.0574 117.475 50.0433 117.46 50.0256C117.351 49.8839 117.209 49.7701 117.047 49.6932C116.885 49.6162 116.707 49.5784 116.528 49.5828C116.509 49.5853 116.49 49.584 116.472 49.579C116.454 49.5739 116.437 49.5653 116.422 49.5535C116.407 49.5418 116.395 49.5271 116.386 49.5105C116.377 49.4939 116.371 49.4756 116.37 49.4568C116.367 49.4197 116.378 49.3829 116.401 49.354C116.425 49.3252 116.459 49.3065 116.496 49.302C116.722 49.2904 116.948 49.3338 117.155 49.4285C117.361 49.5231 117.541 49.6662 117.68 49.8456C117.704 49.8748 117.716 49.9124 117.712 49.9501C117.709 49.9878 117.691 50.0227 117.662 50.0472C117.638 50.0648 117.609 50.0759 117.579 50.0796V50.0796Z" fill="#263238"/>
<path d="M116.881 51.84C116.718 52.4143 116.475 52.9632 116.161 53.4708C116.293 53.5467 116.44 53.5928 116.592 53.6059C116.744 53.619 116.896 53.5987 117.04 53.5464L116.881 51.84Z" fill="#FF5652"/>
<path d="M117.058 51.4044C117.083 51.6456 116.971 51.8544 116.813 51.8688C116.654 51.8832 116.507 51.7032 116.485 51.4584C116.464 51.2136 116.572 51.0084 116.726 50.994C116.881 50.9796 117.032 51.1596 117.058 51.4044Z" fill="#263238"/>
<path d="M116.798 51.0012L116.2 50.8896C116.2 50.8896 116.542 51.3144 116.798 51.0012Z" fill="#263238"/>
<path d="M128.411 146.768H125.395L125.632 139.784H128.649L128.411 146.768Z" fill="#FFB573"/>
<path d="M125.157 146.419H128.544C128.603 146.418 128.66 146.438 128.704 146.476C128.749 146.514 128.778 146.567 128.786 146.624L129.171 149.303C129.178 149.371 129.172 149.439 129.151 149.504C129.13 149.569 129.096 149.629 129.05 149.679C129.004 149.73 128.949 149.771 128.886 149.798C128.824 149.826 128.757 149.84 128.688 149.839C127.508 149.821 126.939 149.749 125.448 149.749C124.53 149.749 123.191 149.846 121.928 149.846C120.664 149.846 120.592 148.594 121.121 148.482C123.483 147.971 123.857 147.272 124.653 146.603C124.794 146.485 124.973 146.42 125.157 146.419V146.419Z" fill="#263238"/>
<g opacity="0.2">
<path d="M128.649 139.784H125.632L125.51 143.384H128.527L128.649 139.784Z" fill="black"/>
</g>
<path d="M116.413 64.08C114.567 63.3623 112.758 62.5512 110.995 61.65C109.173 60.7599 107.438 59.703 105.811 58.4928C105.376 58.1523 104.965 57.7831 104.58 57.3876C104.479 57.2796 104.378 57.1788 104.281 57.0528C104.167 56.924 104.061 56.7882 103.964 56.646C103.698 56.2592 103.533 55.8128 103.482 55.3464C103.442 54.9043 103.502 54.4589 103.658 54.0432C103.783 53.7091 103.954 53.3941 104.166 53.1072C104.513 52.6317 104.924 52.2054 105.386 51.84C106.202 51.1905 107.082 50.6271 108.014 50.1588C108.46 49.9212 108.914 49.7088 109.375 49.5108C109.836 49.3128 110.289 49.1256 110.782 48.9564L111.42 50.3424C109.85 51.3324 108.223 52.4232 107.028 53.64C106.76 53.9111 106.525 54.2118 106.326 54.5364C106.153 54.8208 106.156 55.0332 106.185 55.0152C106.214 54.9972 106.185 55.0152 106.236 55.0512L106.38 55.206C106.434 55.2708 106.509 55.3356 106.578 55.404C106.883 55.6847 107.206 55.9445 107.546 56.1816C108.289 56.7078 109.063 57.1887 109.864 57.6216C110.674 58.0752 111.51 58.5036 112.359 58.914C114.058 59.7276 115.815 60.5088 117.54 61.2216L116.413 64.08Z" fill="#FFB573"/>
<path d="M112.319 49.374L112.816 48.294L110.541 47.52C110.541 47.52 109.821 49.6476 110.674 50.6268C111.031 50.5707 111.368 50.4268 111.655 50.2081C111.942 49.9894 112.17 49.7028 112.319 49.374Z" fill="#FFB573"/>
<path d="M112.805 45.9576L110.995 45.432L110.541 47.5056L112.805 48.294V45.9576Z" fill="#FFB573"/>
<path d="M136.206 48.3984L136.469 45.8784L134.136 46.44C134.136 46.44 134.1 48.8088 135.335 49.1832L136.206 48.3984Z" fill="#FFB573"/>
<path d="M135.345 44.1036L133.822 44.8128L134.135 46.422L136.468 45.8712L135.345 44.1036Z" fill="#FFB573"/>
<path d="M125.114 49.77C125.225 52.7616 125.333 54.0252 123.983 55.6992C121.949 58.2192 118.252 57.6972 117.251 54.7992C116.351 52.1928 116.323 47.7396 119.116 46.2708C119.73 45.9443 120.418 45.78 121.113 45.7938C121.809 45.8075 122.489 45.9987 123.09 46.3492C123.691 46.6998 124.192 47.198 124.546 47.7967C124.901 48.3954 125.096 49.0746 125.114 49.77V49.77Z" fill="#FFB573"/>
<path d="M123.811 55.6956C126.748 54.4248 128.678 51.7356 127.864 47.5668C127.083 43.5672 124.383 43.1712 123.267 43.9992C122.151 44.8272 119.368 43.5924 117.698 44.9964C114.818 47.4336 117.539 50.0364 118.965 51.6096C119.815 53.3592 120.931 56.9376 123.811 55.6956Z" fill="#263238"/>
<path d="M122.591 46.8504C122.949 47.3101 123.434 47.6548 123.986 47.842C124.538 48.0291 125.133 48.0505 125.697 47.9036C126.261 47.7566 126.77 47.4477 127.16 47.0149C127.551 46.5822 127.806 46.0446 127.894 45.4685C127.983 44.8923 127.9 44.3029 127.658 43.773C127.415 43.243 127.023 42.7958 126.529 42.4864C126.035 42.177 125.461 42.019 124.878 42.0319C124.295 42.0449 123.729 42.2282 123.249 42.5592C122.593 43.041 122.155 43.7637 122.032 44.5684C121.908 45.3731 122.109 46.1939 122.591 46.8504Z" fill="#69D3CF"/>
<path d="M123.354 44.28C122.933 41.868 125.212 40.0104 128.264 40.9068C131.317 41.8032 129.704 44.5068 129.074 46.6668C128.444 48.8268 130.093 50.886 130.777 49.2408C131.461 47.5956 130.309 47.0808 130.309 47.0808C130.309 47.0808 133.549 47.9196 130.54 51.5736C127.53 55.2276 124.805 51.192 125.543 48.8124C126.14 46.9008 123.754 46.5588 123.354 44.28Z" fill="#263238"/>
<path d="M120.305 45.1908C118.911 44.4708 116.554 43.8768 115.211 46.1376C114.577 47.2176 114.822 48.6576 114.822 48.6576L118.922 48.9276L120.305 45.1908Z" fill="#263238"/>
<path d="M114.339 47.9448C114.315 47.943 114.293 47.9318 114.277 47.9137C114.26 47.8955 114.252 47.8719 114.253 47.8476C114.253 47.7864 114.357 46.3392 115.232 45.432C117.345 43.236 119.822 45.072 120.528 45.666C120.543 45.6821 120.552 45.7032 120.552 45.7253C120.553 45.7474 120.546 45.7689 120.531 45.7858C120.517 45.8027 120.497 45.8138 120.475 45.8169C120.453 45.8201 120.431 45.815 120.413 45.8028C119.732 45.2196 117.363 43.4736 115.373 45.5544C114.545 46.4148 114.444 47.844 114.444 47.8584C114.443 47.8712 114.44 47.8838 114.435 47.8954C114.429 47.9069 114.421 47.9171 114.411 47.9253C114.401 47.9335 114.39 47.9395 114.377 47.9428C114.365 47.9462 114.352 47.9469 114.339 47.9448Z" fill="#263238"/>
<path d="M119.466 51.48C119.449 52.0464 119.24 52.5901 118.872 53.0208C118.375 53.604 117.792 53.316 117.673 52.6608C117.554 52.0812 117.673 51.0768 118.299 50.7276C118.926 50.3784 119.473 50.8248 119.466 51.48Z" fill="#FFB573"/>
<path d="M118.817 78.8832C118.817 78.8832 119.012 99.8172 120.826 111.481C122.295 120.902 125.006 142.69 125.006 142.69H129.121C129.121 142.69 129.52 121.655 128.761 112.338C126.878 88.758 131.741 84.348 127.817 78.8832H118.817Z" fill="#263238"/>
<path opacity="0.1" d="M118.817 78.8832C118.817 78.8832 119.012 99.8172 120.826 111.481C122.295 120.902 125.006 142.69 125.006 142.69H129.121C129.121 142.69 129.52 121.655 128.761 112.338C126.878 88.758 131.741 84.348 127.817 78.8832H118.817Z" fill="white"/>
<path opacity="0.3" d="M120.982 88.38C122.422 94.698 121.273 104.648 120.485 109.03C119.65 102.377 119.228 93.7548 119.02 87.4296C119.765 86.2272 120.47 86.148 120.982 88.38Z" fill="black"/>
<path d="M124.445 142.769H129.683L129.956 140.933L124.416 140.746L124.445 142.769Z" fill="#69D3CF"/>
<path d="M125.939 61.2C126.432 60.2208 129.082 59.6052 130.529 59.6088L131.609 64.4184C131.609 64.4184 128.729 68.6988 127.526 68.2452C126.112 67.7232 124.884 63.3132 125.939 61.2Z" fill="#69D3CF"/>
<path opacity="0.4" d="M125.939 61.2C126.432 60.2208 129.082 59.6052 130.529 59.6088L131.609 64.4184C131.609 64.4184 128.729 68.6988 127.526 68.2452C126.112 67.7232 124.884 63.3132 125.939 61.2Z" fill="black"/>
<path d="M122.885 141.592C122.891 141.581 122.894 141.569 122.894 141.557C122.894 141.545 122.891 141.534 122.885 141.523C122.879 141.509 122.868 141.498 122.854 141.491C122.84 141.484 122.825 141.481 122.81 141.484C122.659 141.509 121.326 141.718 121.146 142.099C121.127 142.134 121.117 142.173 121.117 142.213C121.117 142.252 121.127 142.291 121.146 142.326C121.177 142.383 121.222 142.431 121.276 142.467C121.33 142.503 121.392 142.525 121.456 142.531C121.892 142.574 122.536 141.97 122.86 141.602L122.885 141.592ZM121.287 142.146C121.409 141.944 122.101 141.757 122.626 141.66C122.151 142.142 121.733 142.412 121.489 142.38C121.446 142.376 121.406 142.361 121.37 142.337C121.335 142.313 121.306 142.281 121.287 142.243C121.279 142.23 121.275 142.214 121.275 142.198C121.275 142.182 121.279 142.167 121.287 142.153C121.287 142.153 121.283 142.15 121.287 142.146Z" fill="#69D3CF"/>
<path d="M126.029 140.314L123.271 141.541L122.043 138.982L120.438 135.634L120.247 135.245L123.005 134.017L123.217 134.456L124.772 137.7L126.029 140.314Z" fill="#FFB573"/>
<path opacity="0.2" d="M124.772 137.7L122.043 138.982L120.438 135.634L123.217 134.456L124.772 137.7Z" fill="black"/>
<path d="M115.585 78.8832C115.585 78.8832 106.775 100.8 109.162 111.096C111.322 120.416 120.862 138.067 120.862 138.067L124.559 136.217C124.559 136.217 118.659 114.908 118.022 110.279C116.776 101.279 124.779 88.56 124.779 78.8832H115.585Z" fill="#263238"/>
<path opacity="0.1" d="M115.585 78.8832C115.585 78.8832 106.775 100.8 109.162 111.096C111.322 120.416 120.862 138.067 120.862 138.067L124.559 136.217C124.559 136.217 118.659 114.908 118.022 110.279C116.776 101.279 124.779 88.56 124.779 78.8832H115.585Z" fill="white"/>
<path d="M122.781 141.156L125.517 139.165C125.564 139.129 125.621 139.111 125.68 139.115C125.738 139.119 125.793 139.145 125.834 139.187L127.724 141.127C127.77 141.178 127.805 141.238 127.826 141.303C127.847 141.367 127.854 141.436 127.847 141.504C127.84 141.572 127.819 141.638 127.784 141.697C127.75 141.756 127.704 141.807 127.649 141.847C126.68 142.524 126.18 142.805 124.977 143.68C124.236 144.22 122.76 145.411 121.737 146.156C120.715 146.902 119.937 145.93 120.297 145.53C121.91 143.73 122.249 142.614 122.501 141.602C122.54 141.426 122.639 141.268 122.781 141.156V141.156Z" fill="#263238"/>
<path d="M120.625 138.848L125.387 136.67L124.779 134.73L119.678 137.056L120.625 138.848Z" fill="#69D3CF"/>
<path d="M117.921 60.9696C117.529 59.9472 114.087 58.8096 112.359 58.4496L111.6 64.1088C111.6 64.1088 114.422 68.1624 115.657 67.8276C117.118 67.4316 118.771 63.162 117.921 60.9696Z" fill="#69D3CF"/>
<path opacity="0.4" d="M117.921 60.9696C117.529 59.9472 114.087 58.8096 112.359 58.4496L111.6 64.1088C111.6 64.1088 114.422 68.1624 115.657 67.8276C117.118 67.4316 118.771 63.162 117.921 60.9696Z" fill="black"/>
<path d="M114.145 60.6852C114.145 60.6852 112.705 61.1892 115.585 78.8832H127.825C127.62 73.9008 127.613 70.8264 129.985 60.5952C128.27 60.2414 126.531 60.0128 124.783 59.9112C122.933 59.7779 121.075 59.7779 119.225 59.9112C116.852 60.12 114.145 60.6852 114.145 60.6852Z" fill="#69D3CF"/>
<path opacity="0.4" d="M114.145 60.6852C114.145 60.6852 112.705 61.1892 115.585 78.8832H127.825C127.62 73.9008 127.613 70.8264 129.985 60.5952C128.27 60.2414 126.531 60.0128 124.783 59.9112C122.933 59.7779 121.075 59.7779 119.225 59.9112C116.852 60.12 114.145 60.6852 114.145 60.6852Z" fill="black"/>
<path d="M128.016 78.1668L128.566 79.2468C128.61 79.3332 128.509 79.4196 128.368 79.4196H115.524C115.412 79.4196 115.322 79.3656 115.315 79.2936L115.203 78.2136C115.203 78.138 115.293 78.0732 115.412 78.0732H127.8C127.841 78.0667 127.883 78.072 127.921 78.0886C127.959 78.1052 127.992 78.1323 128.016 78.1668Z" fill="#69D3CF"/>
<path opacity="0.3" d="M128.016 78.1668L128.566 79.2468C128.61 79.3332 128.509 79.4196 128.368 79.4196H115.524C115.412 79.4196 115.322 79.3656 115.315 79.2936L115.203 78.2136C115.203 78.138 115.293 78.0732 115.412 78.0732H127.8C127.841 78.0667 127.883 78.072 127.921 78.0886C127.959 78.1052 127.992 78.1323 128.016 78.1668Z" fill="white"/>
<path d="M126.36 79.56H126.691C126.759 79.56 126.81 79.524 126.803 79.4844L126.648 78.0444C126.648 78.0012 126.587 77.9688 126.522 77.9688H126.187C126.122 77.9688 126.072 78.0012 126.075 78.0444L126.23 79.4844C126.227 79.5168 126.284 79.56 126.36 79.56Z" fill="#263238"/>
<path d="M118.299 79.56H118.63C118.695 79.56 118.746 79.524 118.742 79.4844L118.587 78.0444C118.587 78.0012 118.526 77.9688 118.458 77.9688H118.126C118.058 77.9688 118.011 78.0012 118.015 78.0444L118.17 79.4844C118.173 79.5168 118.231 79.56 118.299 79.56Z" fill="#263238"/>
</svg>
