<svg width="1439" height="300" viewBox="0 0 1439 300" fill="none" xmlns="http://www.w3.org/2000/svg">
<g clip-path="url(#clip0_398_654)">
<rect width="1439" height="300" fill="#69D3CF"/>
<path d="M0 0C144 0 144 60 288 60C432 60 432 0 575.966 0C719.931 0 719.965 60 863.965 60C1007.97 60 1008 0 1152 0C1296 0 1296 60 1440 60" stroke="#348A97" stroke-width="10" stroke-miterlimit="10"/>
<path d="M0 70C144 70 144 132 288 132C432 132 432 70 575.966 70C719.931 70 719.965 132 863.965 132C1007.97 132 1008 70 1152 70C1296 70 1296 132 1440 132" stroke="#348A97" stroke-width="10" stroke-miterlimit="10"/>
<path d="M0 142C144 142 144 202 288 202C432 202 432 142 575.966 142C719.931 142 719.965 202 863.965 202C1007.97 202 1008 142 1152 142C1296 142 1296 202 1440 202" stroke="#348A97" stroke-width="10" stroke-miterlimit="10"/>
<path d="M0 212C144 212 144 274 288 274C432 274 432 212 575.966 212C719.931 212 719.965 274 863.965 274C1007.97 274 1008 212 1152 212C1296 212 1296 274 1440 274" stroke="#348A97" stroke-width="10" stroke-miterlimit="10"/>
<path d="M0 284C144 284 144 344 288 344C432 344 432 284 575.966 284C719.931 284 719.965 344 863.965 344C1007.97 344 1008 284 1152 284C1296 284 1296 344 1440 344" stroke="#348A97" stroke-width="10" stroke-miterlimit="10"/>
</g>
<defs>
<clipPath id="clip0_398_654">
<rect width="1439" height="300" fill="white"/>
</clipPath>
</defs>
</svg>
