<svg width="97" height="66" viewBox="0 0 97 66" fill="none" xmlns="http://www.w3.org/2000/svg">
<path d="M45.1572 39.6528C42.2407 48.4224 36.5911 54.4654 29.6067 59.4581C26.6001 61.5913 23.2886 63.139 19.7964 64.0295C11.6503 66.1499 3.46815 65.7418 -4.5103 63.1632C-9.2796 61.6123 -12.924 58.6836 -14.1494 53.4643C-14.3092 52.7288 -14.4833 51.9684 -14.4759 51.2357C-14.4736 49.3471 -13.0994 48.057 -11.1248 48.2083C-10.221 48.2825 -9.3334 48.7303 -8.37898 49.007C-7.38971 50.7205 -9.01304 52.7835 -7.29874 54.3763C-5.70579 55.8737 -3.95821 56.9507 -1.89652 57.4822C5.65949 59.4438 13.2838 59.9754 20.6654 57.1043C28.0469 54.2332 33.4292 48.8742 37.3896 42.0846C37.5767 41.7779 37.5642 41.3547 37.6051 40.9669C37.6079 40.7997 37.5468 40.6364 37.4597 40.2562C35.8509 39.993 34.1638 39.7089 32.4871 39.3856C28.34 38.5682 24.3541 37.2273 20.8292 34.7925C14.2219 30.2302 12.2863 23.6661 15.3332 16.2119C16.7335 12.7877 18.7511 9.80183 21.4251 7.26468C24.9595 3.86654 29.3 2.55257 34.0756 3.1395C39.2392 3.76738 42.8654 6.60725 44.6305 11.6143C46.1651 15.9929 46.7331 20.5322 46.6505 25.1492C46.6101 27.2585 46.5802 29.3286 46.5236 31.8114C52.3909 31.5363 57.1904 28.666 62.1209 26.4816C68.0915 23.8622 75.3353 17.1967 79.2462 11.2966C77.3899 10.5473 75.5082 11.3025 73.7819 11.0079C72.1196 10.7094 70.4286 10.3613 68.8751 9.73514C67.7028 9.2531 67.4732 7.99502 67.7985 6.78074C68.099 5.58081 68.8172 4.70267 70.1507 4.66117C71.6763 4.60814 73.2029 4.78631 74.7351 4.63011C80.2671 4.11821 85.7483 3.40378 90.8879 1.0655C91.4133 0.828416 91.9386 0.591356 92.4821 0.443113C93.8853 0.063414 95.1846 0.306587 96.1498 1.40486C97.1293 2.52797 97.0571 3.89406 96.3764 5.18105C95.0647 7.72636 93.5676 10.18 92.3485 12.7712C90.4812 16.7629 88.9168 20.8779 88.8017 25.3812C88.7971 25.9467 88.7037 26.5304 88.5568 27.0788C88.1313 28.9799 87.0512 30.034 85.5715 29.9943C84.0669 29.969 82.7607 28.9683 82.3475 27.2203C82.0394 25.9412 82.0476 24.579 82.0061 23.2454C81.9551 22.1822 81.993 21.1008 82.0057 19.173C76.3244 24.4728 71.4283 29.5843 64.9543 32.5936C58.6188 35.5561 52.1847 37.9464 45.1572 39.6528ZM39.8228 33.3955C40.677 27.9358 40.9859 23.0226 40.0214 18.0831C39.6903 16.4201 39.2666 14.7112 38.5697 13.16C37.0105 9.65649 34.5865 8.44022 30.7292 8.81306C28.1232 9.05941 25.891 10.1826 24.3279 12.1777C22.9452 13.9694 21.6237 15.9243 20.7579 17.9804C18.6216 23.0546 19.88 26.8973 24.5341 29.7397C29.0172 32.5153 33.9698 33.6954 39.8228 33.3955Z" fill="#FEDF89"/>
</svg>
